<?xml version="1.0" encoding="UTF-8" standalone="no"?> <svg id="Layer_1" data-name="Layer 1" xmlns="http://www.w3.org/2000/svg" viewBox="0 0 128 128"><defs><style>.cls-1{fill:#2e79bd;}.cls-2{fill:#2d3e50;}</style></defs><title>x</title><path class="cls-1" d="M23.34135,81.82768h7.30723a4.15857,4.15857,0,1,0,0-8.31714H23.34135a4.15857,4.15857,0,0,0,0,8.31714Z"/><path class="cls-1" d="M48.01141,81.82768h7.30723a4.15857,4.15857,0,1,0,0-8.31714H48.01141a4.15857,4.15857,0,0,0,0,8.31714Z"/><path class="cls-1" d="M72.68147,81.82768H79.9887a4.15857,4.15857,0,1,0,0-8.31714H72.68147a4.15857,4.15857,0,0,0,0,8.31714Z"/><path class="cls-1" d="M97.35153,81.82768h7.30723a4.15857,4.15857,0,1,0,0-8.31714H97.35153a4.15857,4.15857,0,1,0,0,8.31714Z"/><rect class="cls-1" x="19.18278" y="88.03846" width="15.62437" height="8.31716" rx="4.02772" ry="4.02772"/><rect class="cls-1" x="43.85284" y="88.03846" width="15.62437" height="8.31716" rx="4.02772" ry="4.02772"/><rect class="cls-1" x="68.5229" y="88.03846" width="15.62437" height="8.31716" rx="4.02772" ry="4.02772"/><rect class="cls-1" x="93.19296" y="88.03846" width="15.62437" height="8.31716" rx="4.02772" ry="4.02772"/><path class="cls-1" d="M48.01141,110.88355H79.9887a4.15857,4.15857,0,0,0,4.15857-4.15857v0a4.15858,4.15858,0,0,0-4.15857-4.15857H48.01141a4.15858,4.15858,0,0,0-4.15857,4.15857v0A4.15857,4.15857,0,0,0,48.01141,110.88355Z"/><path class="cls-2" d="M118.84862,59.49972H67.86725c-.80044-4.01675-1.54249-12.22188,4.24468-16.928,4.37919-3.56126,9.7829-5.05442,15.50389-6.635,2.843-.78558,5.78289-1.59793,8.65282-2.69087,12.9537-4.93324,19.48378-15.59551,24.16321-25.37485a3.32809,3.32809,0,1,0-6.0042-2.873c-4.11144,8.59246-9.76557,17.92888-20.52813,22.02763-2.57619.9812-5.23812,1.71664-8.05636,2.49541C79.713,31.21469,73.37386,32.9663,67.91226,37.4077c-5.922,4.81581-8.348,12.78323-6.81069,22.092H9.15138a3.3281,3.3281,0,0,0-3.328,3.328V121.5665a3.3281,3.3281,0,0,0,3.328,3.328H118.84862a3.3281,3.3281,0,0,0,3.328-3.328V62.82775A3.3281,3.3281,0,0,0,118.84862,59.49972Zm-3.328,58.73875H12.47942V66.15578H115.52058Z"/></svg>